<svg viewBox="0 0 1080 1080" fill="none" xmlns="http://www.w3.org/2000/svg">      <defs>  <filter id="filter" x="-20%" y="-20%" width="140%" height="140%" filterUnits="objectBoundingBox" primitiveUnits="userSpaceOnUse" color-interpolation-filters="linearRGB">    <feMorphology operator="dilate" radius="20 20" in="SourceAlpha" result="morphology"/>    <feFlood flood-color="#ffffff" flood-opacity="1" result="flood"/>    <feComposite in="flood" in2="morphology" operator="in" result="composite"/>    <feMerge result="merge">          <feMergeNode in="composite" result="mergeNode"/>      <feMergeNode in="SourceGraphic" result="mergeNode1"/>      </feMerge>  </filter></defs>      <g id="notion-avatar" filter="url(#filter)">        <g id="notion-avatar-face" fill="#ffffff">      <!--?xml version="1.0" encoding="UTF-8"?-->    <title>Face/ 1</title>    <g id="Face/-1" stroke="none" stroke-width="1" fill-rule="evenodd" stroke-linecap="round" stroke-linejoin="round">        <path d="M532,379 C664.54834,379 772,486.45166 772,619 C772,751.54834 664.54834,879 532,879 C435.13263,879 351.668898,801.612202 313.752775,718.980575 L313.322946,718.989282 L312,719 C267.81722,719 232,683.18278 232,639 C232,599.134956 261.158843,566.080325 299.312086,560.00055 C325.599297,455.979213 419.809919,379 532,379 Z M295.858895,624.545187 L304.141105,655.454813" id="Path" stroke="#000000" stroke-width="24"/>    </g>    </g><g id="notion-avatar-nose">      <!--?xml version="1.0" encoding="UTF-8"?-->    <title>Nose/ 4</title>    <g id="Nose/-4" stroke="none" stroke-width="1" fill="none" fill-rule="evenodd" stroke-linecap="round" stroke-linejoin="round">        <path d="M636.843426,596.000252 C661.659687,637.453214 673.277876,666.226337 671.697992,682.319621 C670.118108,698.412905 655.181344,703.444023 626.8877,697.412976" id="Line" stroke="#000000" stroke-width="16" transform="translate(649.363766, 647.939652) rotate(1.032339) translate(-649.363766, -647.939652) "/>    </g>    </g><g id="notion-avatar-mouth">      <!--?xml version="1.0" encoding="UTF-8"?-->    <title>Mouth/ 3</title>    <g id="Mouth/-3" stroke="none" stroke-width="1" fill="none" fill-rule="evenodd" stroke-linecap="round" stroke-linejoin="round">        <g id="Group" transform="translate(475.000000, 729.000000)" stroke="#000000" stroke-width="16">            <path d="M66,41.0869565 C93.79487,40.6243036 114.628203,38.8851732 128.5,35.8695652 C142.371797,32.8539572 161.538463,25.8974355 186,15" id="Path"/>            <path d="M161,25.4347826 C161,49.7826087 153.5,65.4347826 138.5,72.3913043 C123.5,79.3478261 101.833333,68.9130435 73.5,41.0869565" id="Path"/>            <path d="M2.14164194,45 C-1.3880481,36.6867754 -0.554714768,27.8534421 4.64164194,18.5 C9.83799864,9.14655793 17.3379986,2.97989127 27.1416419,0" id="Path"/>        </g>    </g>    </g><g id="notion-avatar-eyes">      <!--?xml version="1.0" encoding="UTF-8"?-->    <title>Eyes/ 0</title>    <g id="Eyes/-0" stroke="none" stroke-width="1" fill="none" fill-rule="evenodd">        <path d="M570,516 C583.254834,516 594,526.745166 594,540 C594,553.254834 583.254834,564 570,564 C556.745166,564 546,553.254834 546,540 C546,526.745166 556.745166,516 570,516 Z M708,516 C721.254834,516 732,526.745166 732,540 C732,553.254834 721.254834,564 708,564 C694.745166,564 684,553.254834 684,540 C684,526.745166 694.745166,516 708,516 Z" id="Combined-Shape" fill="#000000"/>    </g>    </g><g id="notion-avatar-eyebrows">      <!--?xml version="1.0" encoding="UTF-8"?-->    <title>Eyebrows/ 1</title>    <g id="Eyebrows/-1" stroke="none" stroke-width="1" fill="none" fill-rule="evenodd" stroke-linecap="square" stroke-linejoin="round">        <g id="Group" transform="translate(521.000000, 490.000000)" stroke="#000000" stroke-width="20">            <path d="M0,16 C12.8888889,5.33333333 27.8888889,0 45,0 C62.1111111,0 77.1111111,5.33333333 90,16" id="Path"/>            <path d="M146,16 C158.888889,5.33333333 173.888889,0 191,0 C208.111111,0 223.111111,5.33333333 236,16" id="Path"/>        </g>    </g>    </g><g id="notion-avatar-glasses">      <!--?xml version="1.0" encoding="UTF-8"?-->    <title>Glasses/ 10</title>    <g id="Glasses/-10" stroke="none" stroke-width="1" fill="none" fill-rule="evenodd">        <g id="Group" transform="translate(289.000000, 475.000000)" fill="#000000">            <rect id="Rectangle" x="201" y="0" width="300" height="23.4"/>            <path d="M329.571429,0 L370.642857,0 L370.642857,50.7333333 C363.797619,41.4888889 356.952381,36.8666667 350.107143,36.8666667 C343.261905,36.8666667 336.416667,41.4888889 329.571429,50.7333333 L329.571429,0 Z" id="Rectangle"/>            <path d="M209.035714,16.4666667 L226.635493,91.6470116 C228.329435,98.8829668 234.782715,104 242.214302,104 L295.809254,104 C302.413177,104 308.338607,99.9426587 310.726587,93.7856009 L340.714286,16.4666667 L340.714286,16.4666667 L209.035714,16.4666667 Z" id="Path" stroke="#000000" stroke-width="16" stroke-linecap="round" stroke-linejoin="round"/>            <path d="M359.5,16.4666667 L377.099778,91.6470116 C378.793721,98.8829668 385.247,104 392.678588,104 L446.273539,104 C452.877463,104 458.802893,99.9426587 461.190872,93.7856009 L491.178571,16.4666667 L491.178571,16.4666667 L359.5,16.4666667 Z" id="Path" stroke="#000000" stroke-width="16" stroke-linecap="round" stroke-linejoin="round" transform="translate(425.339286, 60.233333) scale(-1, 1) translate(-425.339286, -60.233333) "/>            <polygon id="Path" stroke="#000000" stroke-width="4" stroke-linecap="round" stroke-linejoin="round" points="201 2 4 66 0 75 201 22"/>        </g>    </g>    </g><g id="notion-avatar-hair">      <!--?xml version="1.0" encoding="UTF-8"?-->    <title>Hairstyle/ 20</title>    <g id="Hairstyle/-20" stroke="none" stroke-width="1" fill="none" fill-rule="evenodd" stroke-linecap="round" stroke-linejoin="round">        <path d="M232,126 C292.220249,126 344.152059,161.487028 368.024158,212.689811 C410.238527,194.447151 459.304239,186 515,186 C629.125983,186 703.747536,236.594939 747,304 C779.083989,354 792.083989,420.666667 786,504 L782.3412,503.1612 C722.927067,489.4804 680.48,476.76 655,465 L653.4276,464.2712 C627.542533,452.223733 591.733333,433.133333 546,407 C523.282962,464.400495 502.949629,505.067161 485,529 C461,561 425.666667,593 379,625 C368.637704,603.721586 361.637704,590.721586 358,586 C352.543445,578.917621 333.32,563.08 300,567 C277.333333,569.666667 249,596 240,625 C216.02868,569.081696 198.509382,476.747877 207.442105,423.998542 C136.28321,412.281762 82,350.480143 82,276 C82,193.157288 149.157288,126 232,126 Z" id="Path" stroke="#000000" stroke-width="12" fill="#000000"/>    </g>    </g><g id="notion-avatar-accessories">      <!--?xml version="1.0" encoding="UTF-8"?-->    <title>Accessories/ 0</title>    <g id="Accessories/-0" stroke="none" stroke-width="1" fill="none" fill-rule="evenodd"/>    </g><g id="notion-avatar-details">      <!--?xml version="1.0" encoding="UTF-8"?-->    <title>Details/ 0</title>    <g id="Details/-0" stroke="none" stroke-width="1" fill="none" fill-rule="evenodd"/>    </g><g id="notion-avatar-beard">      <!--?xml version="1.0" encoding="UTF-8"?-->    <title>Beard/ 0</title>    <g id="Beard/-0" stroke="none" stroke-width="1" fill="none" fill-rule="evenodd"/>    </g>      </g>      </svg>